<svg viewBox="0 0 24 24" fill="none" xmlns="http://www.w3.org/2000/svg" ><g clip-path="url(#clip0_296_2063)"><path d="M1.92878 22.0712C3.5763 23.7188 6.22795 23.7188 11.5312 23.7188H12.4688C17.772 23.7188 20.4237 23.7188 22.0712 22.0712C23.7188 20.4237 23.7188 17.772 23.7188 12.4687V11.5312C23.7188 6.22786 23.7188 3.5762 22.0712 1.92868C20.4237 0.281249 17.772 0.28125 12.4688 0.28125H11.5312C6.22795 0.28125 3.5763 0.281251 1.92878 1.92868C0.28125 3.5762 0.28125 6.22786 0.28125 11.5312V12.4687C0.28125 17.772 0.281251 20.4237 1.92878 22.0712Z" fill="#0077FF"></path><path fill-rule="evenodd" clip-rule="evenodd" d="M18.3762 15.8596L16.7927 15.4641C16.602 15.4094 16.4673 15.2378 16.4605 15.0384L16.2629 9.20977C16.2057 8.43831 15.6331 7.82476 15.0346 7.64406C15.0011 7.63393 14.9652 7.64757 14.9453 7.67649C14.925 7.70584 14.9329 7.74652 14.9611 7.76837C15.1088 7.88274 15.5156 8.25606 15.5156 8.89998L15.5144 16.5207C15.5144 17.2565 14.819 17.7962 14.1018 17.617L12.4938 17.2153C12.3155 17.1529 12.1916 16.9869 12.1851 16.7954L11.9875 10.9664C11.9303 10.1949 11.3577 9.58135 10.7592 9.40065C10.7256 9.39052 10.6897 9.40416 10.6699 9.43309C10.6497 9.46248 10.6574 9.50312 10.6857 9.52496C10.8334 9.63934 11.2401 10.0126 11.2401 10.6566L11.239 17.0088L11.2399 17.009V18.278C11.2399 19.0139 10.5445 19.5535 9.82728 19.3744L5.28519 18.2397C4.6537 18.082 4.21094 17.5171 4.21094 16.8693L4.21094 9.23668C4.21094 8.50084 4.9063 7.96112 5.62353 8.14032L8.48548 8.85521V7.47934C8.48548 6.74349 9.18083 6.20377 9.89806 6.38293L12.7599 7.09787V5.72195C12.7599 4.98606 13.4553 4.44638 14.1725 4.62555L18.7146 5.7602C19.346 5.91793 19.7888 6.48282 19.7888 7.13068V14.7632C19.7888 15.4991 19.0935 16.0388 18.3762 15.8596Z" fill="white"></path></g><defs><clipPath id="clip0_296_2063"><rect width="24" height="24" fill="white"></rect></clipPath></defs></svg>